<svg version="1.2" xmlns="http://www.w3.org/2000/svg" viewBox="0 0 100 34"><style></style><path  d="m7.2 20.5c-1.4-0.4-2.8-1-3.9-2-0.5-0.5-0.6-0.5-0.2-1.1q0.5-0.8 1.1-1.5c0.4-0.5 0.5-0.5 0.9-0.1 1.7 1.6 3.6 2.1 5.7 1.9 1.1-0.2 1.7-0.8 1.7-1.5 0.1-0.8-0.4-1.3-1.4-1.6-1.1-0.3-2.2-0.6-3.3-0.9-0.9-0.2-1.8-0.5-2.5-1.1-1.5-1-2.1-2.9-1.6-4.7 0.5-1.9 1.9-3 3.8-3.5 2.5-0.5 4.8-0.1 7.1 1.1q0.2 0.1 0.4 0.3c0.5 0.4 0.6 0.5 0.3 1.1q-0.5 0.8-0.9 1.7c-0.2 0.3-0.5 0.4-0.8 0.1q-1.4-1-3.2-1.3c-0.8-0.1-1.5-0.1-2.3 0.1-0.6 0.2-1 0.6-1 1.2-0.1 0.7 0.3 1.1 0.8 1.4 0.9 0.4 1.9 0.6 2.8 0.8 1.3 0.4 2.6 0.7 3.7 1.5 2.3 1.8 2.2 5.5-0.1 7.1-1.9 1.4-4 1.5-6.2 1.2q-0.4-0.1-0.9-0.2z"/><path  d="m79.1 16.5c0-1.1 0-2.2 0-3.2-0.1-1-0.4-1.8-1.3-2.3-1-0.5-2-0.5-3 0q-0.6 0.4-0.8 1.1c-0.1 0.3-0.3 0.4-0.5 0.2q-1.5-0.9-2.9-1.7c-0.8-0.4-1.1-0.4-1.7 0.1-0.2 0.2-0.4 0.2-0.6 0.1-1.9-0.5-3.4 0.5-3.4 2.5-0.1 2.1 0 4.2 0 6.3 0 0.9 0 1-1.1 1q-0.9-0.1-1.8-0.1-0.5 0.1-0.5-0.5c0-2.5-0.1-4.9 0.1-7.4 0.3-2.8 1.9-4.5 4.7-5 2-0.3 3.9 0 5.6 1.3 0.2 0.2 0.3 0.1 0.5 0 1.8-1.4 3.8-1.6 6-1.1 2.2 0.5 3.6 2.1 4 4.3 0.1 1.1 0.1 2.2 0.1 3.3q0 2.2 0 4.4c0 0.7-0.1 0.8-0.7 0.8q-1 0-2 0c-0.5 0-0.7-0.2-0.7-0.8q0-1.6 0-3.3z"/><path  d="m44.6 17q0.5 0.4 1 0.8 0.5 0.3 0.1 0.8c-0.4 0.6-1 1-1.6 1.3-3.1 1.8-8.2 0.9-9.7-3-1.5-3.7 0.3-8.7 5.3-9.2 2.1-0.2 3.9 0.3 5.3 1.8 1.3 1.5 1.7 3.2 1.7 5.1 0 0.5-0.4 0.7-0.8 0.7q-4 0-7.9 0c-0.7 0-0.8 0-0.5 0.7 0.5 1.2 1.5 1.8 2.8 1.9q1.6 0.1 2.9-0.9c0.7-0.5 0.7-0.5 1.4 0zm-5.5-6.3c-1.1 0.4-1.6 1.2-1.8 2.2 0.5 0.1 5.6 0.1 6 0 0-0.6-0.3-1.1-0.7-1.6-1-1-2.2-1-3.5-0.6z"/><path  d="m59.6 19q0 0.5 0 0.9c0 0.5-0.2 0.7-0.6 0.6q-0.8 0-1.6 0-0.8 0.1-0.9-0.6c0-0.2-0.1-0.3-0.1-0.5-0.9 0.9-2 1.3-3.2 1.4-2 0.1-3.8-0.2-5-2-1.6-2.2-0.4-5.3 2.2-6 0.4-0.1 0.4 0.2 0.4 0.4 0 1 0 2 0 3-0.1 1.3 0.9 1.9 1.8 2 1 0 1.8-0.1 2.6-0.6 0.6-0.4 1-1 1-1.7 0-1.1 0.1-2.2 0-3.3-0.1-1-0.6-1.5-1.5-1.8-1.3-0.4-2.7-0.2-4 0.2-1 0.3-1 0.3-1.5-0.7q-0.2-0.5-0.4-1-0.3-0.6 0.3-0.8c1.8-0.7 3.5-1 5.4-0.8 0.9 0.1 1.8 0.2 2.6 0.7 1.5 0.8 2.2 2.2 2.4 3.8 0.2 2.2 0 4.5 0.1 6.8z"/><path  d="m91.6 17.6q1.5 0 3 0c0.7 0 0.8 0.2 0.8 0.8q0 0.8 0 1.5c0 0.6-0.1 0.7-0.7 0.7q-3.7 0-7.4 0-1.1 0-2.3 0c-0.6 0-0.7-0.1-0.8-0.7q0 0 0 0c-0.3-1.6 0.6-2.5 1.5-3.6 1.6-1.7 3.1-3.4 4.6-5.1q0-0.1 0.2-0.2-2.7 0-5.2 0c-0.9 0-0.9-0.1-0.9-0.9q0-0.7 0-1.4c0-0.6 0.1-0.8 0.7-0.8q3.5 0 7 0 1.2 0 2.3 0c0.6 0 0.6 0.2 0.7 0.8 0.3 1.3-0.4 2.2-1.3 3.1-1.6 1.8-3.1 3.7-4.7 5.5-0.1 0.1-0.1 0.1-0.2 0.3 0.9 0 1.8 0 2.7 0z"/><path  d="m22.3 17.5c0.6 0.3 1.2 0.2 1.8 0 0.5-0.1 0.6-0.1 0.6 0.5 0 0.6 0 1.2 0 1.7 0 0.4-0.1 0.5-0.4 0.7-1.8 0.8-5.2 0.3-5.9-2.7-0.1-0.5-0.2-0.9-0.2-1.4q0.1-2.4 0-4.7c0-0.6 0-0.7-0.6-0.7q-0.1 0.1-0.2 0.1c-0.8 0-1-0.2-0.9-0.9 0.1-0.5 0-1 0-1.5 0-0.4 0.2-0.6 0.6-0.6 1.2 0 1.2-0.1 1.2-1.2q0-0.6 0-1.2c-0.1-0.3 0.1-0.6 0.4-0.6q1.2-0.1 2.5 0c0.3 0 0.4 0.3 0.4 0.6q0.1 0.9 0.1 1.8c0 0.4 0.1 0.6 0.5 0.6 0.7 0 1.3 0 2 0 0.4 0 0.5 0.1 0.5 0.5q0 0.9 0 1.8c0.1 0.4-0.1 0.6-0.5 0.6-0.6 0-1.2 0.1-1.9 0-0.5 0-0.6 0.1-0.6 0.6q0 2.3 0 4.7c0 0.5 0.1 0.9 0.6 1.3z"/><path  d="m32.3 7.6c1.4 0 1.4 0 1.4 1.4q0 0.5 0 1c0 0.9 0 0.9-0.9 0.9-0.5 0-1 0.1-1.4 0.2-1.3 0.5-1.7 1.6-1.8 2.8 0 2 0 3.9 0 5.8 0 0.8-0.1 0.9-0.8 0.8q-1 0-2 0c-0.4 0-0.6-0.1-0.6-0.6q0-2.9 0.1-5.8c0-3.6 2.1-6 5.7-6.4q0.1 0 0.3-0.1z"/><path  d="m69.1 13.7c0-0.7 0-1.2 0-1.8 0.1-0.8 0.5-1 1.2-0.7q2.4 1.4 4.7 2.8c0.9 0.5 0.9 1.1 0 1.7q-2.1 1.2-4.2 2.5-0.3 0.1-0.5 0.2c-0.6 0.3-1.2 0-1.2-0.8q0-1.9 0-3.9z"/><path  d="m80 29.8c-1.1 0.4-1.9 0.2-2.8-0.5 0 0.7 0 1.3 0 1.9 0 0.4-0.2 0.6-0.6 0.6q-0.2 0-0.4 0-0.4 0-0.4-0.4 0-3.4 0-6.7c0-0.3 0.1-0.4 0.4-0.4q0.1 0 0.2 0c0.5-0.1 0.8-0.1 0.8 0.5 1.9-1 3.5-0.7 4.2 0.9 0.7 1.5 0.1 3.5-1.4 4.1zm-1.1-1c1.5-0.1 1.8-2 1-2.9-0.3-0.4-0.8-0.6-1.3-0.5-1 0.1-1.5 0.8-1.4 1.8 0 1 0.6 1.6 1.7 1.6z"/><path  d="m68.9 29.9c-0.2 0-0.4 0.1-0.5-0.1 0-0.2 0.2-0.4 0.3-0.5q1-1.4 2-2.7c0.2-0.3 0.2-0.6 0-0.9q-1-1.3-1.9-2.7c-0.1-0.1-0.2-0.2-0.2-0.3 0.7-0.4 1.4-0.2 1.8 0.4 0.5 0.6 0.9 1.3 1.4 2 0.5-0.7 0.9-1.3 1.3-1.9 0.4-0.7 1-0.9 1.8-0.6 0 0.2-0.1 0.3-0.1 0.4q-1 1.4-1.9 2.8c-0.2 0.2-0.2 0.5 0 0.7q1 1.4 2 2.9c0.1 0.1 0.2 0.2 0.2 0.4-0.9 0.3-1.5 0.1-2-0.6q-0.6-0.9-1.2-1.8-0.1 0-0.1-0.1c-0.3 0.2-0.5 0.5-0.7 0.8-0.2 0.3-0.5 0.7-0.6 1-0.4 0.7-0.9 0.9-1.6 0.8z"/><path  d="m86.3 29.8c-2 0.7-3.8-0.4-4.1-2.4-0.2-1.4 0.7-2.8 2.1-3.1 1.4-0.4 2.8 0.2 3.3 1.4 0.2 0.5 0.2 0.9 0.2 1.4 0 0.4-0.1 0.5-0.4 0.5q-1.6 0-3.2 0c-0.1 0-0.3-0.1-0.5 0 0 1.2 1.6 1.6 2.5 1 0.4-0.4 0.7-0.2 1.1 0.1 0.2 0.2 0.2 0.3 0 0.5q-0.4 0.4-1 0.6zm-2.6-3.6c-0.1 0.3 0.1 0.4 0.3 0.4q1.1 0 2.1 0c0.4 0 0.5-0.2 0.3-0.5-0.3-0.5-0.6-0.8-1.2-0.8-0.6 0-1.2 0.2-1.5 0.9z"/><path  d="m95.3 28.7c0.2 0 0.5-0.2 0.5 0.2 0.1 0.3 0.3 0.7-0.2 0.9-1 0.4-2.5 0.1-2.5-1.5q-0.1-1.2 0-2.3c0-0.4-0.1-0.6-0.5-0.6-0.4 0-0.3-0.3-0.3-0.6 0-0.2-0.1-0.5 0.3-0.5 0.4 0 0.5-0.2 0.5-0.5q0-0.1 0-0.2c0-0.9 0.2-1.1 1.1-0.9 0.2 0.1 0.2 0.2 0.2 0.4 0.1 0.4-0.1 0.8 0.1 1.1 0.2 0.3 0.7 0.1 1 0.1 0.3 0 0.3 0.2 0.3 0.4 0 0.3 0.1 0.6-0.3 0.7q-0.1 0-0.2 0c-0.9 0-0.9 0-0.9 0.8q0 0.9 0.1 1.7c0 0.7 0.1 0.8 0.8 0.8z"/><path  d="m52.3 12.2q1.3 0.8 2.6 1.5 0.2 0.1 0.4 0.3c0.3 0.3 0.4 0.5 0 0.7q-1.5 1-3.1 1.9c-0.3 0.2-0.7-0.1-0.8-0.5 0-1.2 0-2.4 0-3.5q0-0.9 0.9-0.4z"/><path  d="m89.8 24.3c0.4 0.1 0.2 0.4 0.3 0.6q0.5-0.5 1.2-0.7c0.5-0.1 0.6 0 0.6 0.5q0 0.2 0 0.4c0 0.3-0.1 0.4-0.3 0.4-1.2 0.2-1.5 0.7-1.5 1.9q-0.1 1 0 2c0 0.7-0.5 0.5-0.9 0.5-0.4 0.1-0.5-0.1-0.5-0.5q0-2.2 0-4.4c0-0.7 0-0.7 0.7-0.7q0.2 0 0.4 0z"/><path  d="m73 20.6q-0.9 0-1.8 0c-0.4 0-0.7-0.1-0.8-0.5q-0.2-0.8 0.4-1.2 1.2-0.7 2.4-1.4c0.1 0 0.3-0.2 0.5-0.1 0 0.9 0.1 1.9 0 2.8 0 0.4-0.3 0.4-0.7 0.4z"/></svg>